


Format                           : AVI
Format/Info                      : Audio Video Interleave
Format profile                   : OpenDML
File size                        : 1.63 GiB
Duration                         : 1h 47mn
Overall bit rate                 : 2 183 Kbps


Video
ID                               : 0
Format                           : MPEG-4 Visual
Format profile                   : Advanced Simple@L5
Format settings, BVOP            : Yes
Format settings, QPel            : No
Format settings, GMC             : No warppoints
Format settings, Matrix          : Custom
Codec ID                         : XVID
Codec ID/Hint                    : XviD
Duration                         : 1h 47mn
Bit rate                         : 2 050 Kbps
Width                            : 720 pixels
Height                           : 304 pixels
Display aspect ratio             : 2.35:1
Frame rate                       : 25.000 fps
Color space                      : YUV
Chroma subsampling               : 4:2:0
Bit depth                        : 8 bits
Scan type                        : Progressive
Bits/(Pixel*Frame)               : 0.375
Stream size                      : 1.53 GiB (94%)
Writing library                  : XviD 1.2.1 (UTC 2008-12-04)

Audio
ID                               : 1
Format                           : MPEG Audio
Format version                   : Version 1
Format profile                   : Layer 3
Codec ID                         : 55
Codec ID/Hint                    : MP3
Duration                         : 1h 47mn
Bit rate mode                    : Constant
Bit rate                         : 128 Kbps
Channel(s)                       : 2 channels
Sampling rate                    : 44.1 KHz
Stream size                      : 98.0 MiB (6%)
Alignment                        : Split accross interleaves
Interleave, duration             : 500 ms (12.50 video frames)
Interleave, preload duration     : 500 ms



 
http://www.imdb.com/title/tt1217613/







Users: 6.4/10 (15,473 votes) 370 reviews | Critics: 179 reviews Metascore: 37/100 (based on 35 reviews from Metacritic.com)

A Marine Staff Sergeant who has just had his retirement approved goes back into the line of duty in order to assist a 2nd Lieutenant and his platoon as they fight to reclaim the city of Los Angeles from alien invaders.
Director:
Jonathan Liebesman
Writer:
Christopher Bertolini
Stars:
Aaron Eckhart, Michelle Rodriguez and Bridget Moynahan 







 
http://img848.imageshack.us/img848/7250/vlcsnap2011040208h00m40.png 
http://img20.imageshack.us/img20/2609/vlcsnap2011040208h00m52.png 
http://img51.imageshack.us/img51/2779/vlcsnap2011040208h01m11.png 
http://img837.imageshack.us/img837/6250/vlcsnap2011040207h59m57.png


SOURCES:



VIDEO: DVD 9 ELEKTRI4KA ................ Thanks

AUDIO: IMAGiNE   ...............................Thanks and for the sync 


Another one a 100 copies out of but here my throw at it .No point talking crap saying i did this and that source was already good .. 2 filters thats all sharpen and Levels filter .........Enjoy if you aint sick 



Greetz to Imagine ,Flawl3ss,DiLLoN,BDK,NOiR,TOXiCiNK,THC,Ez,Rx,Boobyblue





